# xmcd
#
# Track frame offsets: 
#        150
#        17652
#        38615
#        53160
#        71697
#        88862
#        107992
#        124855
#        139970
#        156847
#        177920
#
# Disc length: 2565 seconds
#
# Revision: 4
# Processed by: cddbd v1.5.2PL0 Copyright (c) Steve Scherf et al.
# Submitted via: ExactAudioCopy v0.95b4
#
DISCID=970a030b
DTITLE=Dan Seals - Rage On
DYEAR=1988
DGENRE=Country
TTITLE0=Big Wheels In The Moonlight
TTITLE1=They Rage On
TTITLE2=Five Generations Of Rock County Wilsons
TTITLE3=Twenty-Four Hour Love
TTITLE4=Factory Town
TTITLE5=Addicted
TTITLE6=A Heartache Just Around The Bend
TTITLE7=Maybe I'm Missing You Now
TTITLE8=Fool Me Once, Fool Me Twice
TTITLE9=Long Long Island Nights
TTITLE10=Those
EXTD=
EXTT0=
EXTT1=
EXTT2=
EXTT3=
EXTT4=
EXTT5=
EXTT6=
EXTT7=
EXTT8=
EXTT9=
EXTT10=
PLAYORDER=
